# xmcd
#
# Track frame offsets: 
#        150
#        9704
#        22147
#        34277
#        47882
#        57125
#        69213
#        81828
#        92999
#        105184
#        117645
#        131492
#        145089
#        160223
#        170293
#        182174
#
# Disc length: 2591 seconds
#
# Revision: 0
# Processed by: cddbd v1.5.2PL0 Copyright (c) Steve Scherf et al.
# Submitted via: ExactAudioCopy v0.95b3
#
DISCID=d70a1d10
DTITLE=Gladys Knight and The Pips  - Come See About Me (flac)
DYEAR=1900
DGENRE=
TTITLE0=Every Beat Of My Heart
TTITLE1=Letter Full Of Tears
TTITLE2=Either Way I Lose
TTITLE3=Stop And Get A Hold Of Myself
TTITLE4=If Ever I Should Fall In Love
TTITLE5=Why Don't You Love Me?
TTITLE6=Come See About Me
TTITLE7=How Do You Say Goodbye?
TTITLE8=Who Knows? (I Just Can't Trust You)
TTITLE9=Maybe, Maybe, Baby
TTITLE10=Giving Up
TTITLE11=Queen Of Tears
TTITLE12=Guess Who?
TTITLE13=Operator
TTITLE14=Lovers Always Forgive
TTITLE15=(There Will Never Be) Another Love
EXTD=
EXTT0=
EXTT1=
EXTT2=
EXTT3=
EXTT4=
EXTT5=
EXTT6=
EXTT7=
EXTT8=
EXTT9=
EXTT10=
EXTT11=
EXTT12=
EXTT13=
EXTT14=
EXTT15=
PLAYORDER=
